<?xml version="1.0" encoding="UTF-8" standalone="no"?>
<!-- Created with Inkscape (http://www.inkscape.org/) -->

<svg
   width="36.603001mm"
   height="64.139999mm"
   viewBox="0 0 36.603001 64.139999"
   version="1.1"
   id="svg5"
   xmlns="http://www.w3.org/2000/svg"
   xmlns:svg="http://www.w3.org/2000/svg">
  <defs
     id="defs2" />
  <g
     id="layer1">
    <path
       id="rect846"
       style="fill:#000000;stroke-width:3.77953"
       d="M 138.34375 0 A 55.081497 55.546772 0 0 1 83.349609 53.205078 A 55.081497 55.546772 0 0 1 81.287109 53.126953 L 81.287109 53.179688 L 16.371094 53.179688 C 7.3010338 53.17968 -2.3684758e-15 60.482666 0 69.552734 L 0 175.15234 C 0 184.22241 7.3010338 191.52344 16.371094 191.52344 L 81.287109 191.52344 L 81.287109 191.57031 A 55.081497 55.546772 0 0 1 83.457031 191.48828 A 55.081497 55.546772 0 0 1 138.34375 242.41797 L 138.34375 175.15234 L 138.34375 74.855469 L 138.34375 69.552734 L 138.34375 0 z M 79.408203 86.236328 L 79.039062 156.17578 L 30.277344 120.92969 L 79.408203 86.236328 z "
       transform="scale(0.26458333)" />
  </g>
</svg>
