<?xml version="1.0" encoding="UTF-8" standalone="no"?>
<svg
   height="24px"
   viewBox="0 -960 960 960"
   width="24px"
   fill="#e8eaed"
   version="1.1"
   id="svg4"
   sodipodi:docname="clock2.svg"
   inkscape:version="1.1.2 (0a00cf5339, 2022-02-04)"
   xmlns:inkscape="http://www.inkscape.org/namespaces/inkscape"
   xmlns:sodipodi="http://sodipodi.sourceforge.net/DTD/sodipodi-0.dtd"
   xmlns="http://www.w3.org/2000/svg"
   xmlns:svg="http://www.w3.org/2000/svg">
  <defs
     id="defs8" />
  <sodipodi:namedview
     id="namedview6"
     pagecolor="#ffffff"
     bordercolor="#666666"
     borderopacity="1.0"
     inkscape:pageshadow="2"
     inkscape:pageopacity="0.0"
     inkscape:pagecheckerboard="0"
     showgrid="false"
     inkscape:zoom="17.4375"
     inkscape:cx="14.222222"
     inkscape:cy="14.308244"
     inkscape:window-width="1920"
     inkscape:window-height="1011"
     inkscape:window-x="0"
     inkscape:window-y="0"
     inkscape:window-maximized="1"
     inkscape:current-layer="layer2" />
  <g
     inkscape:groupmode="layer"
     id="layer1"
     inkscape:label="Layer 1"
     style="display:none"
     sodipodi:insensitive="true">
    <path
       d="m 360.00001,-819.99998 v -80 h 240 v 80 z m 120,759.99996 c -49.33333,0 -95.83333,-9.5 -139.5,-28.5 -43.66667,-19 -81.83333,-44.83333 -114.5,-77.5 -32.66667,-32.66667 -58.5,-70.83333 -77.50001,-114.5 -19,-43.66667 -28.5,-90.16667 -28.5,-139.5 0,-49.33333 9.5,-95.83333 28.5,-139.5 19,-43.66667 44.83333,-81.83333 77.5,-114.5 32.66667,-32.66667 70.83333,-58.5 114.5,-77.5 43.66667,-19 90.16667,-28.5 139.5,-28.5 41.33333,0 81,6.66667 119,20 38,13.33333 73.66667,32.66667 107,58 l 56,-56 56,56 -56,56 c 25.33333,33.33333 44.66667,69 58,107 13.33333,38 20,77.66667 20,119 0,49.33333 -9.5,95.83333 -28.5,139.5 -19,43.66667 -44.83333,81.83333 -77.5,114.5 -32.66667,32.66667 -70.83333,58.5 -114.5,77.5 -43.66667,19 -90.16666,28.5 -139.49999,28.5 z m 0,-80 c 77.33333,0 143.33333,-27.33333 198,-82 54.66667,-54.66667 82,-120.66667 82,-198 0,-77.33333 -27.33333,-143.33333 -82,-198 -54.66667,-54.66667 -120.66667,-82 -198,-82 -77.33333,0 -143.33333,27.33333 -198,82 -54.66667,54.66667 -82,120.66667 -82,198 0,77.33333 27.33333,143.33333 82,198 54.66667,54.66667 120.66667,82 198,82 z"
       id="use956"
       style="fill:#000000;fill-opacity:1"
       sodipodi:nodetypes="cccccssssssssssccccsssssssssssssss" />
  </g>
  <g
     inkscape:groupmode="layer"
     id="layer2"
     inkscape:label="Layer 2"
     style="display:inline">
    <path
       d="m 440,-360.00001 h 80 v -239.99998 h -80 z"
       style="fill:#000000;fill-opacity:1;stroke-width:40"
       id="path1494" />
  </g>
</svg>
